<svg xmlns="http://www.w3.org/2000/svg" version="1.1" xmlns:xlink="http://www.w3.org/1999/xlink" xmlns:svgjs="http://svgjs.dev/svgjs" width="100%" height="100%" viewBox="0 0 1000 600"><rect width="1000" height="600" x="0" y="0" fill="#d2302c"/><g><circle r="166.66666666666666" cx="339.76740519205725" cy="361.98965969690676" fill="#f7f7f9" transform="matrix(0.7221228154139372,0,0,0.7221228154139371,0,38.59902686242299)"/><path d="M376.6327882084871 388.6724780893122L395.9710653913967 388.6724780893122Q393.2614247831719 411.8327746564546 378.8860682932214 424.41121158516125Q364.4821892705528 436.9896485138679 340.63735191817466 436.9896485138679L340.63735191817466 436.9896485138679Q314.76741474280743 436.9896485138679 299.1655893459763 418.4500022470668Q283.56376394914514 399.91035598026554 283.56376394914514 368.8207953174758L283.56376394914514 368.8207953174758L283.56376394914514 354.7591866874251Q283.56376394914514 334.4226208593801 290.83700979227484 318.9634081261397Q298.11025563540454 303.5327179256175 311.4588009475014 295.2611834373524Q324.7788237268801 286.9896489490872 342.348703881264 286.9896489490872L342.348703881264 286.9896489490872Q365.5945680465608 286.9896489490872 379.62765414389344 299.9674013358481Q393.6892627739442 312.9451537226089 395.9710653913967 335.93431509344236L395.9710653913967 335.93431509344236L376.6327882084871 335.93431509344236Q374.1228053292894 318.47852506993104 365.7371807101517 310.6633511051564Q357.380078623732 302.8196546076636 342.348703881264 302.8196546076636L342.348703881264 302.8196546076636Q323.89462521261726 302.8196546076636 313.398333172336 316.48194777966023Q302.9305636647728 330.1157184189386 302.9305636647728 355.27259227635193L302.9305636647728 355.27259227635193L302.9305636647728 369.41976850455717Q302.9305636647728 393.1790382587808 312.856405050691 407.21212435611335Q322.78224643660917 421.245210453446 340.63735191817466 421.245210453446L340.63735191817466 421.245210453446Q356.66701530577814 421.245210453446 365.252297653943 413.97196461031626Q373.8090574693897 406.7272412999048 376.6327882084871 388.6724780893122L376.6327882084871 388.6724780893122Z " fill="black" transform="matrix(0.7221228154139372,0,0,0.7221228154139371,0,38.59902686242299)"/><path d="M679.2463903444583 390.5362671616318L697.8387118401654 390.5362671616318Q695.2335930465191 412.80317727153476 681.4127522886482 424.89641293467184Q667.5644892276864 436.9896485978088 644.639443843599 436.9896485978088L644.639443843599 436.9896485978088Q619.7674149400498 436.9896485978088 604.7674151492653 419.1651515886499Q589.7674153584809 401.3406545794911 589.7674153584809 371.4503442102863L589.7674153584809 371.4503442102863L589.7674153584809 357.93114878641666Q589.7674153584809 338.37904668252395 596.7601026466893 323.51615840719455Q603.7527899348978 308.6806924349562 616.5864277814923 300.72822453856224Q629.3926433249954 292.7757566421683 646.2847820290599 292.7757566421683L646.2847820290599 292.7757566421683Q668.633959048236 292.7757566421683 682.1257321690147 305.2529045485795Q695.6449275928843 317.73005245499075 697.8387118401654 339.83242874634766L697.8387118401654 339.83242874634766L679.2463903444583 339.83242874634766Q676.833227672449 323.0499792546474 668.7710705636911 315.53626820770955Q660.736335758024 307.99513485768085 646.2847820290599 307.99513485768085L646.2847820290599 307.99513485768085Q628.5425519291741 307.99513485768085 618.4511443916812 321.1304180382764Q608.3871591572791 334.2382789157808 608.3871591572791 358.42475024205487L608.3871591572791 358.42475024205487L608.3871591572791 372.02621257519763Q608.3871591572791 394.8689910500119 617.9301206329518 408.3607641707906Q627.4730821086246 421.8525372915693 644.639443843599 421.8525372915693L644.639443843599 421.8525372915693Q660.0507781807487 421.8525372915693 668.3048914111438 414.85985000336086Q676.531582338448 407.89458501824333 679.2463903444583 390.5362671616318L679.2463903444583 390.5362671616318ZM715.5809419400513 383.2145122363312L715.5809419400513 381.95308629414444Q715.5809419400513 366.6240188662679 721.6138486200742 354.3662493845849Q727.6467553000972 342.1359022059928 738.3962981117745 335.47228255487653Q749.1458409234518 328.8360852068512 762.9118370751406 328.8360852068512L762.9118370751406 328.8360852068512Q784.2189665768582 328.8360852068512 797.3816720605447 343.5892842698165Q810.5443775442312 358.34248333278185 810.5443775442312 382.8305999930569L810.5443775442312 382.8305999930569L810.5443775442312 384.0646036321525Q810.5443775442312 399.31140415075606 804.7034269858453 411.40463981389314Q798.8898987305505 423.4978754770301 788.0306667065091 430.2437620374194Q777.1988569855587 436.9896485978088 763.1037931967777 436.9896485978088L763.1037931967777 436.9896485978088Q741.9063529074242 436.9896485978088 728.7436474237377 422.2364495348435Q715.5809419400513 407.5106727749692 715.5809419400513 383.2145122363312L715.5809419400513 383.2145122363312ZM733.5151281615741 384.0646036321525L733.5151281615741 384.0646036321525Q733.5151281615741 401.42292148876413 741.577285270332 411.9256635726224Q749.6120200759991 422.42840565648055 763.1037931967777 422.42840565648055L763.1037931967777 422.42840565648055Q776.7052555299205 422.42840565648055 784.7125680324964 411.7885520571673Q792.7198805350723 401.121276154763 792.7198805350723 381.95308629414444L792.7198805350723 381.95308629414444Q792.7198805350723 364.78672455917 784.5754565170413 354.14687095985676Q776.4310324990104 343.47959505745246 762.9118370751406 343.47959505745246L762.9118370751406 343.47959505745246Q749.7217092883631 343.47959505745246 741.6047075734231 353.9823371413106Q733.5151281615741 364.5125015282599 733.5151281615741 384.0646036321525ZM852.2811228487539 286.9896506899645L852.2811228487539 435.0700873814378L834.4566258395951 435.0700873814378L834.4566258395951 286.9896506899645L852.2811228487539 286.9896506899645ZM880.745473457226 330.7556464232222L897.6101898581993 330.7556464232222L898.0763690107466 342.3278583276299Q909.5663140058813 328.8360852068512 929.036149200501 328.8360852068512L929.036149200501 328.8360852068512Q950.9191470671298 328.8360852068512 958.8167703573416 345.5911123954605L958.8167703573416 345.5911123954605Q964.0270079446342 338.0774013485228 972.3633880843023 333.4704544292325Q980.6997682239705 328.8360852068512 992.080024006741 328.8360852068512L992.080024006741 328.8360852068512Q1026.4127474766901 328.8360852068512 1026.9886158416016 365.17063680244416L1026.9886158416016 365.17063680244416L1026.9886158416016 435.0700873814378L1009.1366965293515 435.0700873814378L1009.1366965293515 366.2401066229937Q1009.1366965293515 355.05180696186017 1004.0361481544231 349.5125017374754Q998.9355997794945 343.97319651309067 986.8697864194486 343.97319651309067L986.8697864194486 343.97319651309067Q976.9429127005016 343.97319651309067 970.3889822617493 349.8964139807497Q963.8350518229971 355.8196314484086 962.7655820024476 365.85619437971957L962.7655820024476 365.85619437971957L962.7655820024476 435.0700873814378L944.8313957809247 435.0700873814378L944.8313957809247 366.706285775541Q944.8313957809247 343.97319651309067 922.5644856710218 343.97319651309067L922.5644856710218 343.97319651309067Q905.0142116927731 343.97319651309067 898.5699704663848 358.9183516976931L898.5699704663848 358.9183516976931L898.5699704663848 435.0700873814378L880.745473457226 435.0700873814378L880.745473457226 330.7556464232222ZM1136.9794735396567 435.0700873814378L1118.2774628315856 435.0700873814378Q1116.741813858489 431.9713671321533 1115.7820332503034 424.07374384194134L1115.7820332503034 424.07374384194134Q1103.3323076469833 436.9896485978088 1086.0836790027356 436.9896485978088L1086.0836790027356 436.9896485978088Q1070.644922362495 436.9896485978088 1060.7728932497303 428.26935621486643Q1050.900864136965 419.5490638319242 1050.900864136965 406.1395576204185L1050.900864136965 406.1395576204185Q1050.900864136965 389.8507095843564 1063.2683228310125 380.8287718674129Q1075.6632038281505 371.83425645356056 1098.122070059691 371.83425645356056L1098.122070059691 371.83425645356056L1115.4803879163023 371.83425645356056L1115.4803879163023 363.63498782934744Q1115.4803879163023 354.28398247531186 1109.8862380857354 348.7446772509271Q1104.292088255169 343.20537202654236 1093.4054339280365 343.20537202654236L1093.4054339280365 343.20537202654236Q1083.8624724523638 343.20537202654236 1077.3908089228844 348.00427506746973Q1070.9465676964965 352.83060041148815 1070.9465676964965 359.6861761842415L1070.9465676964965 359.6861761842415L1053.0123814749732 359.6861761842415Q1053.0123814749732 351.87081980330265 1058.551686699358 344.603909484184Q1064.0909919237429 337.3095768619744 1073.6065310963245 333.0591198828673Q1083.094647965815 328.8360852068512 1094.4749037485858 328.8360852068512L1094.4749037485858 328.8360852068512Q1112.4913568793818 328.8360852068512 1122.71987593233 337.83060062070365Q1132.9209726821869 346.85253833764716 1133.304884925461 362.67520722116194L1133.304884925461 362.67520722116194L1133.304884925461 410.6916599335268Q1133.304884925461 425.03352445012683 1136.9794735396567 433.5344384083411L1136.9794735396567 433.5344384083411L1136.9794735396567 435.0700873814378ZM1088.688797796382 421.46862504829505L1088.688797796382 421.46862504829505Q1097.0800225422322 421.46862504829505 1104.59373358917 417.13590115991497Q1112.1074446361076 412.80317727153476 1115.4803879163023 405.8653345895084L1115.4803879163023 405.8653345895084L1115.4803879163023 384.4485158754268L1101.4950133398852 384.4485158754268Q1068.7253611461242 384.4485158754268 1068.7253611461242 403.64412803913626L1068.7253611461242 403.64412803913626Q1068.7253611461242 412.03535278498646 1074.3195109766907 416.7519889166408Q1079.9136608072577 421.46862504829505 1088.688797796382 421.46862504829505ZM1211.7052494626691 330.17977805831083L1211.7052494626691 346.77027142837403Q1207.6467486051988 346.08471385109874 1202.9301124735443 346.08471385109874L1202.9301124735443 346.08471385109874Q1185.379838495296 346.08471385109874 1179.100131087454 361.02986903570115L1179.100131087454 361.02986903570115L1179.100131087454 435.0700873814378L1161.2756340782948 435.0700873814378L1161.2756340782948 330.7556464232222L1178.6339519349067 330.7556464232222L1178.9081749658167 342.8214597832681Q1187.683311954941 328.8360852068512 1203.7802038693662 328.8360852068512L1203.7802038693662 328.8360852068512Q1208.9904414566586 328.8360852068512 1211.7052494626691 330.17977805831083L1211.7052494626691 330.17977805831083Z " fill="#f7f7f9" transform="matrix(0.7221228154139372,0,0,0.7221228154139371,0,38.59902686242299)"/></g></svg>